<svg xmlns="http://www.w3.org/2000/svg" version="1.1" xmlns:xlink="http://www.w3.org/1999/xlink" xmlns:svgjs="http://svgjs.dev/svgjs" width="1440" height="560" preserveAspectRatio="none" viewBox="0 0 1440 560"><g mask="url(&quot;#SvgjsMask1050&quot;)" fill="none"><rect width="1440" height="560" x="0" y="0" fill="url(&quot;#SvgjsLinearGradient1051&quot;)"></rect><path d="M707.955,280.18C733.83,280.587,759.446,269.86,772.651,247.605C786.107,224.928,785.769,195.706,771.071,173.813C757.722,153.93,731.903,151.269,707.955,151.241C683.938,151.212,657.656,153.517,644.58,173.662C630.577,195.235,633.544,223.518,646.695,245.621C659.544,267.217,682.829,279.784,707.955,280.18" fill="rgba(97, 103, 122, 0.6)" class="triangle-float1"></path><path d="M762.471,316.292C810.677,316.721,863.009,311.763,889.827,271.703C919.232,227.779,918.179,169.309,891.362,123.759C864.916,78.839,814.598,55.411,762.471,55.383C710.291,55.355,659.409,78.418,633.337,123.618C607.282,168.789,609.949,226.153,638.981,269.471C665.25,308.665,715.29,315.872,762.471,316.292" fill="rgba(97, 103, 122, 0.6)" class="triangle-float1"></path><path d="M1174.915,209.901C1217.18,208.49,1243.332,169.138,1264.488,132.521C1285.661,95.876,1305.907,53.969,1286.837,16.187C1266.307,-24.487,1220.471,-45.647,1174.915,-44.942C1130.565,-44.256,1090.123,-19.352,1068.834,19.56C1048.354,56.994,1053.577,101.595,1074.35,138.867C1095.764,177.29,1130.952,211.368,1174.915,209.901" fill="rgba(97, 103, 122, 0.6)" class="triangle-float2"></path><path d="M1407.135,509.607C1451.417,509.601,1494.815,487.483,1514.615,447.874C1532.846,411.403,1514.659,370.823,1494.117,335.602C1473.792,300.752,1447.467,264.579,1407.135,263.589C1365.587,262.569,1333.373,295.244,1312.43,331.142C1291.282,367.39,1279.933,410.833,1299.605,447.903C1320.368,487.028,1362.842,509.613,1407.135,509.607" fill="rgba(97, 103, 122, 0.6)" class="triangle-float2"></path><path d="M754.338,468.72C783.9,467.296,806.356,445.131,820.837,419.319C834.944,394.173,841.06,364.143,827.188,338.866C812.843,312.727,784.1,296.342,754.338,298.145C727.051,299.798,709.619,323.552,695.326,346.855C680.04,371.778,662.989,399.995,675.731,426.309C689.638,455.029,722.465,470.255,754.338,468.72" fill="rgba(97, 103, 122, 0.6)" class="triangle-float2"></path><path d="M549.795,147.958C567.731,147.712,585.12,139.552,593.856,123.885C602.393,108.576,598.826,90.369,590.516,74.936C581.651,58.472,568.448,43.366,549.795,42.053C529.009,40.59,507.895,50.198,497.766,68.407C487.864,86.208,492.436,108.077,503.586,125.125C513.665,140.536,531.383,148.211,549.795,147.958" fill="rgba(97, 103, 122, 0.6)" class="triangle-float2"></path><path d="M493.451,685.643C547.71,686.318,602.625,663.449,628.219,615.601C652.704,569.826,636.4,515.102,607.876,471.729C582.416,433.014,539.742,412.707,493.451,410.672C442.619,408.437,387.593,417.985,360.161,460.838C330.972,506.436,336.756,565.749,364.368,612.319C391.418,657.941,440.417,684.983,493.451,685.643" fill="rgba(97, 103, 122, 0.6)" class="triangle-float3"></path><path d="M66.815,220.921C117.498,221.863,158.215,184.314,183.715,140.503C209.401,96.372,222.941,41.819,196.477,-1.85C170.709,-44.371,116.402,-56.029,66.815,-52.4C23.702,-49.245,-11.964,-22.387,-33.677,14.992C-55.506,52.571,-61.851,97.235,-42.792,136.292C-21.095,180.753,17.351,220.001,66.815,220.921" fill="rgba(97, 103, 122, 0.6)" class="triangle-float2"></path><path d="M784.673,499.562C806.356,499.03,819.845,478.511,830.289,459.501C840.217,441.431,847.238,420.801,838.097,402.32C827.977,381.859,807.497,366.882,784.673,367.272C762.39,367.653,744.681,384.362,734.319,404.092C724.725,422.359,725.379,443.59,735.005,461.84C745.4,481.549,762.398,500.109,784.673,499.562" fill="rgba(97, 103, 122, 0.6)" class="triangle-float1"></path><path d="M275.176,327.536C312.19,328.376,341.307,299.214,359.108,266.75C376.137,235.695,378.68,199.358,362.83,167.685C345.028,132.112,314.907,100.97,275.176,99.026C232.494,96.938,189.561,119.684,171.293,158.315C154.795,193.203,177.406,230.194,197.596,263.083C216.448,293.792,239.151,326.718,275.176,327.536" fill="rgba(97, 103, 122, 0.6)" class="triangle-float3"></path><path d="M750.13,218.687C774.786,217.914,787.582,191.942,799.345,170.259C810.331,150.008,821.388,127.277,810.827,106.801C799.593,85.021,774.636,74.666,750.13,74.845C725.953,75.022,702.701,86.547,690.952,107.678C679.497,128.281,684.177,152.718,695.266,173.52C707.21,195.924,724.753,219.482,750.13,218.687" fill="rgba(97, 103, 122, 0.6)" class="triangle-float3"></path><path d="M950.332,583.638C1001.916,580.112,1045.572,548.042,1070.235,502.599C1093.718,459.33,1090.663,409.06,1069.097,364.804C1043.947,313.193,1007.664,259.591,950.332,256.545C889.257,253.3,837.969,297.879,807.492,350.905C777.131,403.729,766.353,469.265,798.224,521.193C828.952,571.259,891.725,587.644,950.332,583.638" fill="rgba(97, 103, 122, 0.6)" class="triangle-float2"></path><path d="M174.335,366.503C204.105,366.783,228.3,346.18,244.119,320.959C261.244,293.656,275.468,259.486,258.735,231.941C242.362,204.987,205.833,204.503,174.335,206.081C146.325,207.484,117.745,215.615,103.41,239.72C88.798,264.291,92.829,294.72,106.786,319.669C121.123,345.297,144.97,366.227,174.335,366.503" fill="rgba(97, 103, 122, 0.6)" class="triangle-float2"></path><path d="M1420.348,671.014C1473.785,672.647,1523.883,643.639,1550.587,597.324C1577.264,551.056,1577.177,493.224,1549.021,447.841C1522.245,404.683,1471.137,387.586,1420.348,387.401C1369.17,387.214,1315.679,402.605,1290.039,446.897C1264.359,491.258,1277.437,545.453,1303.201,589.765C1328.802,633.796,1369.439,669.458,1420.348,671.014" fill="rgba(97, 103, 122, 0.6)" class="triangle-float2"></path></g><defs><mask id="SvgjsMask1050"><rect width="1440" height="560" fill="#ffffff"></rect></mask><linearGradient x1="50%" y1="0%" x2="50%" y2="100%" gradientUnits="userSpaceOnUse" id="SvgjsLinearGradient1051"><stop stop-color="rgba(255, 255, 255, 1)" offset="0"></stop><stop stop-color="rgba(39, 40, 41, 1)" offset="0"></stop></linearGradient><style>
                @keyframes float1 {
                    0%{transform: translate(0, 0)}
                    50%{transform: translate(-10px, 0)}
                    100%{transform: translate(0, 0)}
                }

                .triangle-float1 {
                    animation: float1 5s infinite;
                }

                @keyframes float2 {
                    0%{transform: translate(0, 0)}
                    50%{transform: translate(-5px, -5px)}
                    100%{transform: translate(0, 0)}
                }

                .triangle-float2 {
                    animation: float2 4s infinite;
                }

                @keyframes float3 {
                    0%{transform: translate(0, 0)}
                    50%{transform: translate(0, -10px)}
                    100%{transform: translate(0, 0)}
                }

                .triangle-float3 {
                    animation: float3 6s infinite;
                }
            </style></defs></svg>