<svg xmlns="http://www.w3.org/2000/svg" version="1.1" xmlns:xlink="http://www.w3.org/1999/xlink" xmlns:svgjs="http://svgjs.dev/svgjs" width="1440" height="560" preserveAspectRatio="none" viewBox="0 0 1440 560"><g mask="url(&quot;#SvgjsMask1022&quot;)" fill="none"><rect width="1440" height="560" x="0" y="0" fill="rgba(39, 40, 41, 1)"></rect><path d="M1488 560L0 560 L0 364.36Q38.35 282.71, 120 321.06Q192.44 273.5, 240 345.93Q291.13 325.06, 312 376.2Q314.83 307.03, 384 309.86Q410.49 264.35, 456 290.83Q536.36 251.19, 576 331.55Q618.65 302.2, 648 344.85Q689.54 314.39, 720 355.94Q752.27 268.21, 840 300.48Q867.5 255.98, 912 283.47Q1013.78 265.25, 1032 367.04Q1040.52 303.56, 1104 312.08Q1153.08 241.15, 1224 290.23Q1279.64 273.88, 1296 329.52Q1352.44 313.96, 1368 370.4Q1398.2 280.61, 1488 310.81z" fill="rgba(97, 103, 122, 1)"></path><path d="M1536 560L0 560 L0 425.41Q41.89 395.3, 72 437.19Q95.52 340.71, 192 364.23Q234.64 334.87, 264 377.51Q322.26 363.77, 336 422.03Q377.27 391.3, 408 432.58Q421.6 374.18, 480 387.78Q525.85 313.63, 600 359.48Q660.7 348.18, 672 408.88Q691.61 356.49, 744 376.09Q794.98 307.06, 864 358.04Q923.26 345.3, 936 404.56Q984.05 380.62, 1008 428.67Q1038.57 387.24, 1080 417.8Q1129.38 395.18, 1152 444.56Q1160.37 380.93, 1224 389.29Q1241.72 335.01, 1296 352.74Q1379.59 316.33, 1416 399.91Q1495.44 359.35, 1536 438.79z" fill="rgba(216, 217, 218, 1)"></path><path d="M1512 560L0 560 L0 434.02Q75.2 389.22, 120 464.42Q196.08 420.5, 240 496.58Q277.56 414.14, 360 451.71Q433.54 405.25, 480 478.78Q487.62 414.4, 552 422.02Q617.09 367.11, 672 432.19Q760.5 400.69, 792 489.19Q864.69 441.88, 912 514.57Q925.29 407.86, 1032 421.15Q1069.73 386.88, 1104 424.62Q1148.86 397.48, 1176 442.34Q1269.83 416.17, 1296 510Q1311.06 453.06, 1368 468.12Q1412.13 440.25, 1440 484.37Q1487.77 460.14, 1512 507.91z" fill="rgba(248, 248, 248, 1)"></path><path d="M1488 560L0 560 L0 586.26Q4.52 518.78, 72 523.3Q113.09 492.39, 144 533.48Q213.74 483.22, 264 552.95Q341.14 510.09, 384 587.23Q408.11 491.34, 504 515.44Q547.8 487.25, 576 531.05Q651.01 486.06, 696 561.07Q732.82 477.89, 816 514.72Q843.52 470.25, 888 497.77Q938.15 475.92, 960 526.07Q1004.98 499.05, 1032 544.02Q1068.83 460.85, 1152 497.67Q1219.77 445.44, 1272 513.21Q1325.82 495.03, 1344 548.84Q1394.96 527.81, 1416 578.77Q1424.78 515.55, 1488 524.33z" fill="white"></path></g><defs><mask id="SvgjsMask1022"><rect width="1440" height="560" fill="#ffffff"></rect></mask></defs></svg>