<svg xmlns="http://www.w3.org/2000/svg" version="1.1" xmlns:xlink="http://www.w3.org/1999/xlink" xmlns:svgjs="http://svgjs.dev/svgjs" width="1440" height="560" preserveAspectRatio="none" viewBox="0 0 1440 560"><g mask="url(&quot;#SvgjsMask1097&quot;)" fill="none"><rect width="1440" height="560" x="0" y="0" fill="rgba(39, 40, 41, 1)"></rect><path d="M1536 560L0 560 L0 367.84Q32.75 328.59, 72 361.34Q140.99 310.32, 192 379.31Q238.9 354.21, 264 401.1Q318.5 335.6, 384 390.1Q408.42 342.52, 456 366.94Q485.55 324.49, 528 354.04Q602.86 308.9, 648 383.76Q676.09 339.85, 720 367.93Q779.1 355.03, 792 414.13Q813.57 363.7, 864 385.27Q917.5 318.77, 984 372.28Q1028.86 297.13, 1104 341.99Q1196.32 314.31, 1224 406.62Q1250.11 360.73, 1296 386.84Q1350.78 321.62, 1416 376.4Q1458.82 299.22, 1536 342.04z" fill="rgba(97, 103, 122, 1)"></path><path d="M1512 560L0 560 L0 441.67Q47.06 416.73, 72 463.79Q126.42 398.21, 192 452.62Q206.16 394.78, 264 408.95Q305.12 378.07, 336 419.19Q405.25 368.44, 456 437.69Q495.71 357.4, 576 397.11Q646.49 347.6, 696 418.09Q753.74 403.83, 768 461.57Q773.12 394.69, 840 399.81Q902.2 390.01, 912 452.21Q957.8 378.01, 1032 423.82Q1083.35 355.17, 1152 406.52Q1210.7 393.23, 1224 451.93Q1247.45 403.38, 1296 426.84Q1353.13 411.96, 1368 469.09Q1393.25 422.33, 1440 447.58Q1468.04 403.62, 1512 431.65z" fill="rgba(216, 217, 218, 1)"></path><path d="M1464 560L0 560 L0 469.7Q35.27 432.97, 72 468.23Q157.55 433.78, 192 519.33Q233.79 441.12, 312 482.91Q382.47 433.38, 432 503.86Q462.77 462.63, 504 493.4Q532.82 450.21, 576 479.03Q629.5 412.53, 696 466.04Q752.69 450.73, 768 507.42Q796.27 463.69, 840 491.96Q885.35 417.31, 960 462.66Q1004.91 435.57, 1032 480.48Q1074.52 451, 1104 493.53Q1175.74 445.27, 1224 517.02Q1254.74 427.76, 1344 458.5Q1414.89 409.39, 1464 480.28z" fill="rgba(248, 248, 248, 1)"></path><path d="M1488 560L0 560 L0 528.36Q65.34 473.7, 120 539.05Q168.71 467.76, 240 516.47Q294.97 499.44, 312 554.42Q380.13 502.54, 432 570.67Q446.96 513.63, 504 528.59Q550.49 503.08, 576 549.57Q619.32 520.89, 648 564.21Q662.94 507.15, 720 522.09Q749.87 479.96, 792 509.82Q869.9 467.72, 912 545.62Q942.88 504.5, 984 535.37Q1037.84 469.2, 1104 523.04Q1187.27 486.31, 1224 569.57Q1273.78 499.35, 1344 549.13Q1358.85 491.98, 1416 506.83Q1460.46 479.29, 1488 523.76z" fill="white"></path></g><defs><mask id="SvgjsMask1097"><rect width="1440" height="560" fill="#ffffff"></rect></mask></defs></svg>