<svg width="1920" height="1080" viewBox="0 0 1920 1080" xmlns="http://www.w3.org/2000/svg"><rect width="1920" height="1080" fill="#272829"/><path d="M 0,1080 C 0,1080 0,180 0,180 C 85.14871794871792,165.68974358974359 170.29743589743583,151.37948717948717 291,174 C 411.70256410256417,196.62051282051283 567.9589743589744,256.1717948717949 687,246 C 806.0410256410256,235.82820512820513 887.8666666666668,155.93333333333334 972,134 C 1056.1333333333332,112.06666666666666 1142.574358974359,148.0948717948718 1263,170 C 1383.425641025641,191.9051282051282 1537.8358974358973,199.6871794871795 1653,199 C 1768.1641025641027,198.3128205128205 1844.0820512820515,189.15641025641025 1920,180 C 1920,180 1920,1080 1920,1080 Z" fill="#61677a" opacity="0.09999999999999999"/><path d="M 0,1080 C 0,1080 0,360 0,360 C 123.85128205128203,347.8051282051282 247.70256410256405,335.61025641025645 363,351 C 478.29743589743595,366.38974358974355 585.0410256410257,409.36410256410255 697,416 C 808.9589743589743,422.63589743589745 926.1333333333334,392.93333333333334 1009,393 C 1091.8666666666666,393.06666666666666 1140.425641025641,422.90256410256404 1241,426 C 1341.574358974359,429.09743589743596 1494.1641025641024,405.4564102564103 1616,390 C 1737.8358974358976,374.5435897435897 1828.9179487179488,367.27179487179484 1920,360 C 1920,360 1920,1080 1920,1080 Z" fill="#61677a" opacity="0.19999999999999998"/><path d="M 0,1080 C 0,1080 0,540 0,540 C 86.64102564102566,538.8358974358974 173.28205128205133,537.6717948717949 291,551 C 408.7179487179487,564.3282051282051 557.5128205128204,592.1487179487181 675,590 C 792.4871794871796,587.8512820512819 878.6666666666667,555.7333333333333 973,536 C 1067.3333333333333,516.2666666666667 1169.820512820513,508.9179487179488 1268,514 C 1366.179487179487,519.0820512820512 1460.051282051282,536.5948717948718 1568,543 C 1675.948717948718,549.4051282051282 1797.974358974359,544.7025641025641 1920,540 C 1920,540 1920,1080 1920,1080 Z" fill="#61677a" opacity="0.3"/><path d="M 0,1080 C 0,1080 0,720 0,720 C 114.79743589743592,705.6769230769231 229.59487179487184,691.3538461538462 350,697 C 470.40512820512816,702.6461538461538 596.4179487179487,728.2615384615384 678,722 C 759.5820512820513,715.7384615384616 796.7333333333333,677.6 914,692 C 1031.2666666666667,706.4 1228.648717948718,773.3384615384616 1338,784 C 1447.351282051282,794.6615384615384 1468.6717948717949,749.0461538461539 1551,729 C 1633.3282051282051,708.9538461538461 1776.6641025641024,714.4769230769231 1920,720 C 1920,720 1920,1080 1920,1080 Z" fill="#61677a" opacity="0.39999999999999997"/><path d="M 0,1080 C 0,1080 0,900 0,900 C 76.97435897435895,888.3564102564103 153.9487179487179,876.7128205128205 266,888 C 378.0512820512821,899.2871794871795 525.1794871794872,933.5051282051282 630,926 C 734.8205128205128,918.4948717948718 797.3333333333334,869.2666666666665 902,874 C 1006.6666666666666,878.7333333333335 1153.4871794871797,937.4282051282053 1290,954 C 1426.5128205128203,970.5717948717947 1552.7179487179487,945.0205128205127 1656,929 C 1759.2820512820513,912.9794871794873 1839.6410256410256,906.4897435897436 1920,900 C 1920,900 1920,1080 1920,1080 Z" fill="#61677a" opacity="0.49999999999999994"/></svg>