<svg xmlns="http://www.w3.org/2000/svg" version="1.1" xmlns:xlink="http://www.w3.org/1999/xlink" xmlns:svgjs="http://svgjs.dev/svgjs" width="1440" height="560" preserveAspectRatio="none" viewBox="0 0 1440 560"><g mask="url(&quot;#SvgjsMask1049&quot;)" fill="none"><rect width="1440" height="560" x="0" y="0" fill="rgba(39, 40, 41, 1)"></rect><path d="M0,624.086C112.893,599.863,176.935,486.68,264.127,410.99C337.334,347.44,413.486,293.113,471.088,215.139C541.367,120.005,643.308,26.671,635.209,-91.329C627.096,-209.534,506.78,-282.374,430.705,-373.208C353.157,-465.801,295.847,-581.82,184.745,-629.185C68.411,-678.78,-74.25,-693.99,-186.893,-636.501C-296.392,-580.616,-315.075,-435.236,-388.487,-336.626C-454.735,-247.639,-569.077,-193.219,-596.864,-85.816C-625.587,25.204,-581.437,139.637,-539.297,246.289C-495.258,357.747,-446.775,473.704,-348.621,542.465C-248.85,612.358,-119.106,649.642,0,624.086" fill="#191a1b"></path><path d="M1440 928.106C1513.52 937.304 1600.642 945.005 1655.233 894.9100000000001 1710.132 844.533 1677.968 750.579 1707.845 682.321 1736.982 615.754 1826.479 577.147 1826.127 504.483 1825.777 432.26800000000003 1752.672 384.615 1706.136 329.392 1658.905 273.344 1620.41 204.97899999999998 1551.865 179.02300000000002 1481.392 152.336 1396.935 151.54700000000003 1330.523 187.15699999999998 1267.119 221.15499999999997 1255.752 305.251 1211.161 361.71000000000004 1169.363 414.632 1083.283 440.678 1077.2440000000001 507.844 1071.158 575.539 1150.826 617.48 1182.771 677.473 1212.067 732.492 1212.157 801.561 1256.802 845.0609999999999 1305.816 892.818 1372.096 919.61 1440 928.106" fill="#353637"></path></g><defs><mask id="SvgjsMask1049"><rect width="1440" height="560" fill="#ffffff"></rect></mask></defs></svg>