<?xml version="1.0" standalone="no"?>
<svg xmlns:xlink="http://www.w3.org/1999/xlink" id="wave" style="transform:rotate(0deg); transition: 0.3s" viewBox="0 0 1440 310" version="1.1" xmlns="http://www.w3.org/2000/svg"><defs><linearGradient id="sw-gradient-0" x1="0" x2="0" y1="1" y2="0"><stop stop-color="rgba(39, 40, 41, 1)" offset="0%"/><stop stop-color="rgba(97, 103, 122, 1)" offset="100%"/></linearGradient></defs><path style="transform:translate(0, 0px); opacity:1" fill="url(#sw-gradient-0)" d="M0,186L14.1,170.5C28.2,155,56,124,85,139.5C112.9,155,141,217,169,217C197.6,217,226,155,254,134.3C282.4,114,311,134,339,160.2C367.1,186,395,217,424,191.2C451.8,165,480,83,508,87.8C536.5,93,565,186,593,211.8C621.2,238,649,196,678,165.3C705.9,134,734,114,762,103.3C790.6,93,819,93,847,108.5C875.3,124,904,155,932,160.2C960,165,988,145,1016,118.8C1044.7,93,1073,62,1101,51.7C1129.4,41,1158,52,1186,51.7C1214.1,52,1242,41,1271,36.2C1298.8,31,1327,31,1355,31C1383.5,31,1412,31,1440,41.3C1468.2,52,1496,72,1525,98.2C1552.9,124,1581,155,1609,180.8C1637.6,207,1666,227,1694,211.8C1722.4,196,1751,145,1779,118.8C1807.1,93,1835,93,1864,77.5C1891.8,62,1920,31,1948,20.7C1976.5,10,2005,21,2019,25.8L2032.9,31L2032.9,310L2018.8,310C2004.7,310,1976,310,1948,310C1920,310,1892,310,1864,310C1835.3,310,1807,310,1779,310C1750.6,310,1722,310,1694,310C1665.9,310,1638,310,1609,310C1581.2,310,1553,310,1525,310C1496.5,310,1468,310,1440,310C1411.8,310,1384,310,1355,310C1327.1,310,1299,310,1271,310C1242.4,310,1214,310,1186,310C1157.6,310,1129,310,1101,310C1072.9,310,1045,310,1016,310C988.2,310,960,310,932,310C903.5,310,875,310,847,310C818.8,310,791,310,762,310C734.1,310,706,310,678,310C649.4,310,621,310,593,310C564.7,310,536,310,508,310C480,310,452,310,424,310C395.3,310,367,310,339,310C310.6,310,282,310,254,310C225.9,310,198,310,169,310C141.2,310,113,310,85,310C56.5,310,28,310,14,310L0,310Z"/></svg>