<?xml version="1.0" standalone="no"?>
<svg xmlns:xlink="http://www.w3.org/1999/xlink" id="wave" style="transform:rotate(0deg); transition: 0.3s" viewBox="0 0 1440 190" version="1.1" xmlns="http://www.w3.org/2000/svg"><defs><linearGradient id="sw-gradient-0" x1="0" x2="0" y1="1" y2="0"><stop stop-color="rgba(39, 40, 41, 1)" offset="0%"/><stop stop-color="rgba(97, 103, 122, 1)" offset="100%"/></linearGradient></defs><path style="transform:translate(0, 0px); opacity:1" fill="url(#sw-gradient-0)" d="M0,0L20,6.3C40,13,80,25,120,25.3C160,25,200,13,240,25.3C280,38,320,76,360,82.3C400,89,440,63,480,63.3C520,63,560,89,600,88.7C640,89,680,63,720,72.8C760,82,800,127,840,123.5C880,120,920,70,960,53.8C1000,38,1040,57,1080,60.2C1120,63,1160,51,1200,47.5C1240,44,1280,51,1320,69.7C1360,89,1400,120,1440,117.2C1480,114,1520,76,1560,60.2C1600,44,1640,51,1680,47.5C1720,44,1760,32,1800,50.7C1840,70,1880,120,1920,117.2C1960,114,2000,57,2040,31.7C2080,6,2120,13,2160,34.8C2200,57,2240,95,2280,101.3C2320,108,2360,82,2400,63.3C2440,44,2480,32,2520,41.2C2560,51,2600,82,2640,107.7C2680,133,2720,152,2760,142.5C2800,133,2840,95,2860,76L2880,57L2880,190L2860,190C2840,190,2800,190,2760,190C2720,190,2680,190,2640,190C2600,190,2560,190,2520,190C2480,190,2440,190,2400,190C2360,190,2320,190,2280,190C2240,190,2200,190,2160,190C2120,190,2080,190,2040,190C2000,190,1960,190,1920,190C1880,190,1840,190,1800,190C1760,190,1720,190,1680,190C1640,190,1600,190,1560,190C1520,190,1480,190,1440,190C1400,190,1360,190,1320,190C1280,190,1240,190,1200,190C1160,190,1120,190,1080,190C1040,190,1000,190,960,190C920,190,880,190,840,190C800,190,760,190,720,190C680,190,640,190,600,190C560,190,520,190,480,190C440,190,400,190,360,190C320,190,280,190,240,190C200,190,160,190,120,190C80,190,40,190,20,190L0,190Z"/></svg>